<?xml version="1.0" standalone="no"?>
<!DOCTYPE svg PUBLIC "-//W3C//DTD SVG 20010904//EN"
 "http://www.w3.org/TR/2001/REC-SVG-20010904/DTD/svg10.dtd">
<svg version="1.0" xmlns="http://www.w3.org/2000/svg"
 width="338.000000pt" height="370.000000pt" viewBox="0 0 338.000000 370.000000"
 preserveAspectRatio="xMidYMid meet">

<g transform="translate(0.000000,370.000000) scale(0.100000,-0.100000)"
fill="#000000" stroke="none">
<path d="M2060 3419 c-674 -154 -1107 -251 -1530 -346 -113 -25 -206 -46 -207
-47 -1 -1 18 -91 43 -200 25 -109 44 -199 42 -201 -2 -2 -86 -22 -188 -45
-102 -23 -186 -42 -187 -43 -1 -1 25 -119 58 -262 33 -143 86 -379 119 -525
33 -146 110 -483 170 -750 61 -267 131 -577 157 -690 25 -113 49 -209 54 -214
5 -5 57 2 126 17 293 66 610 137 1118 253 205 47 319 73 610 138 417 94 598
135 601 139 2 2 -3 28 -11 58 -30 112 -75 330 -71 338 3 5 20 11 38 14 38 7
295 65 319 72 13 4 0 71 -88 458 -56 248 -130 571 -163 717 -32 146 -100 445
-150 665 -50 220 -100 441 -111 490 -26 118 -28 125 -42 124 -7 -1 -325 -73
-707 -160z m272 -453 c357 -64 517 -230 518 -536 0 -169 -30 -368 -118 -795
-83 -398 -96 -491 -88 -644 l6 -123 -377 6 c-335 6 -379 8 -387 23 -9 16 -3
156 10 238 l6 40 -30 -40 c-136 -181 -484 -310 -782 -290 -310 20 -481 145
-536 392 -51 230 65 501 290 679 227 180 578 282 1032 302 l159 7 9 42 c19 90
-20 180 -93 217 -39 20 -112 26 -176 16 -118 -19 -217 -87 -257 -177 l-20 -44
-61 5 c-34 3 -118 10 -187 16 -331 28 -474 41 -478 45 -6 5 54 121 93 180 19
27 62 79 97 114 188 190 445 301 794 341 115 13 472 4 576 -14z"/>
<path d="M1815 1826 c-103 -22 -170 -45 -231 -82 -79 -48 -116 -85 -155 -157
-27 -52 -31 -66 -26 -112 10 -100 61 -155 144 -155 63 0 181 28 227 53 87 48
150 172 185 365 l18 102 -51 -1 c-28 -1 -78 -7 -111 -13z"/>
</g>
</svg>
